IKResults
version=1
nRows=17
nColumns=40
inDegrees=yes

Units are S.I. units (second, meters, Newtons, ...)
Angles are in degrees.

endheader
time	pelvis_tilt	pelvis_list	pelvis_rotation	pelvis_tx	pelvis_ty	pelvis_tz	hip_flexion_r	hip_adduction_r	hip_rotation_r	knee_angle_r	knee_angle_r_beta	ankle_angle_r	subtalar_angle_r	mtp_angle_r	hip_flexion_l	hip_adduction_l	hip_rotation_l	knee_angle_l	knee_angle_l_beta	ankle_angle_l	subtalar_angle_l	mtp_angle_l	lumbar_extension	lumbar_bending	lumbar_rotation	arm_flex_r	arm_add_r	arm_rot_r	elbow_flex_r	pro_sup_r	wrist_flex_r	wrist_dev_r	arm_flex_l	arm_add_l	arm_rot_l	elbow_flex_l	pro_sup_l	wrist_flex_l	wrist_dev_l
      0.50000000	     13.97606471	     -5.31887273	      3.80589185	     -0.81318439	      0.92508650	      1.40136164	      9.86551957	      2.79062890	    -28.39094391	    -14.89956035	     -0.26004639	      0.31149664	     10.51038600	     -7.57086359	    -28.44969107	      5.85127243	      9.99063424	    -15.34940210	     -0.26789760	     16.98730335	      1.97643764	     -8.13197136	    -22.01364134	      7.33182575	     -5.54541122	     -7.51343384	    -10.28304083	     -6.14722903	     16.14281751	     89.95437384	      0.00000000	      0.00000000	     16.35989817	     10.50810482	     10.68127856	     46.02619331	     89.95437384	      0.00000000	      0.00000000
      0.51000000	     13.61802490	     -5.23650139	      3.73644508	     -0.80270678	      0.92360905	      1.40212703	     10.26075764	      2.76451950	    -28.28395325	    -15.00952487	     -0.26196563	      0.49002431	     10.26748638	     -7.52263827	    -28.58267677	      5.90690862	      9.74074944	    -15.75300434	     -0.27494179	     16.67725979	      1.81902834	     -8.05228144	    -21.52752730	      7.24139816	     -5.46153023	     -7.80927473	    -10.29902767	     -6.10735443	     16.12142759	     89.95437384	      0.00000000	      0.00000000	     16.34618421	     10.32028124	     10.69914663	     46.22641581	     89.95437384	      0.00000000	      0.00000000
      0.52000000	     13.23056234	     -5.30718596	      3.86454341	     -0.79187479	      0.92223016	      1.40285744	     10.55414595	      2.91600187	    -28.16526114	    -15.25440974	     -0.26623968	      1.15396373	      9.95268406	     -7.56054626	    -28.69784143	      6.20500152	      9.26500222	    -16.08629279	     -0.28075877	     16.23000713	      1.55190783	     -8.00531595	    -20.93455589	      7.35785878	     -5.54840756	     -8.08764985	    -10.28942221	     -6.07716869	     15.99503876	     89.95437384	      0.00000000	      0.00000000	     16.27299171	     10.07903327	     10.89540251	     46.24063457	     89.95437384	      0.00000000	      0.00000000
      0.53000000	     12.88813501	     -5.17031535	      3.87773705	     -0.78105257	      0.92102132	      1.40371039	     10.77987336	      2.84913848	    -27.69627863	    -15.73658261	     -0.27465518	      1.12856572	      9.58491019	     -7.43731364	    -28.74576187	      6.26116767	      8.98961735	    -16.66436981	     -0.29084812	     15.80509843	      1.48108080	     -7.86711609	    -20.44877595	      7.22443636	     -5.59985744	     -8.41305673	    -10.27200340	     -6.04620288	     16.18159079	     89.95437384	      0.00000000	      0.00000000	     16.11817651	      9.94281694	     10.92087720	     46.36500810	     89.95437384	      0.00000000	      0.00000000
      0.54000000	     12.52919492	     -5.20829475	      4.27616409	     -0.76985163	      0.91981545	      1.40406830	     11.13465319	      2.85459970	    -27.52224273	    -16.86342662	     -0.29432232	      1.62755582	      7.71986378	     -7.55488891	    -28.78258060	      6.62963404	      8.15042567	    -17.12086826	     -0.29881552	     15.12263723	      1.30663351	     -7.90380934	    -19.83131670	      7.40639787	     -6.00248425	     -8.55101950	    -10.26056157	     -5.98842089	     15.93270233	     89.95437384	      0.00000000	      0.00000000	     15.93821978	      9.59387705	     11.46908271	     46.25445416	     89.95437384	      0.00000000	      0.00000000
      0.55000000	     12.21187816	     -5.28409148	      4.35279754	     -0.75867514	      0.91890336	      1.40491844	     11.53009888	      2.85710084	    -27.46650252	    -18.16994311	     -0.31712533	      0.19168404	      6.48062067	     -7.23891566	    -28.85274423	      6.88320568	      7.73262593	    -17.67266081	     -0.30844612	     14.36475643	      1.43206927	     -7.73349602	    -19.32583305	      7.54397771	     -5.97904589	     -8.84461584	    -10.30376652	     -5.90243008	     16.04356788	     89.95437384	      0.00000000	      0.00000000	     15.79758670	      9.36271115	     11.48863335	     46.02458935	     89.95437384	      0.00000000	      0.00000000
      0.56000000	     11.88876149	     -5.45085066	      4.57580609	     -0.74798785	      0.91852900	      1.40558803	     11.79368237	      3.18428030	    -26.19712629	    -18.87963773	     -0.32951184	     -1.35595661	      3.17757222	     -7.09621732	    -28.86542155	      7.14178338	      6.41369838	    -18.18458377	     -0.31738086	     13.79339859	      2.74017029	     -7.66087611	    -18.89023905	      7.83053722	     -6.13106124	     -8.90532038	    -10.33797874	     -5.80367155	     16.02156040	     89.95437384	      0.00000000	      0.00000000	     15.66809783	      9.03946354	     11.83410785	     45.74682355	     89.95437384	      0.00000000	      0.00000000
      0.57000000	     11.70067242	     -5.76584029	      4.62828796	     -0.73711994	      0.91861593	      1.40658402	     12.06668705	      3.46937992	    -25.18285654	    -20.10977533	     -0.35098179	     -1.27043570	      2.82300906	     -7.00385906	    -28.88118491	      7.57153995	      5.89248081	    -19.01986121	     -0.33195920	     12.95161279	      2.86721454	     -7.45043955	    -18.65384794	      8.23032037	     -6.02680561	     -8.99196848	    -10.41665784	     -5.70285571	     16.15206339	     89.95437384	      0.00000000	      0.00000000	     15.44825113	      8.80292373	     11.87600453	     45.53424819	     89.95437384	      0.00000000	      0.00000000
      0.58000000	     11.39104302	     -6.26569623	      4.45823636	     -0.72632986	      0.91917466	      1.40800178	     12.39480694	      4.35527046	    -23.01883858	    -21.02395539	     -0.36693724	     -1.08055125	     -0.94165648	     -6.83109744	    -28.83530543	      7.88847143	      4.94273825	    -19.73440103	     -0.34443027	     12.01273884	      5.25376287	     -7.16611069	    -18.29682616	      8.75126991	     -5.72844262	     -8.76316459	    -10.53806024	     -5.19772749	     15.75115373	     89.95437384	      0.00000000	      0.00000000	     15.29758857	      8.32772563	     12.45324610	     44.94410165	     89.95437384	      0.00000000	      0.00000000
      0.59000000	     11.35570950	     -6.75920973	      4.44675893	     -0.71505864	      0.92035229	      1.40921948	     12.33294602	      4.99277367	    -22.01707829	    -22.11234941	     -0.38593330	     -0.73974935	     -1.34159845	     -6.71461898	    -28.84653461	      8.41528518	      4.68696275	    -20.80805494	     -0.36316907	     10.66624339	      5.92103632	     -6.89062192	    -18.21135609	      9.30579940	     -5.53524649	     -8.56978872	    -10.63075477	     -4.97214082	     15.50161246	     89.95437384	      0.00000000	      0.00000000	     14.97848153	      8.01277336	     12.67000355	     44.50269694	     89.95437384	      0.00000000	      0.00000000
      0.60000000	     11.35088310	     -7.18840375	      4.38511093	     -0.70371588	      0.92198849	      1.41061666	     11.96937131	      5.79928896	    -20.51995034	    -22.68095178	     -0.39585729	     -0.25902317	     -2.06969473	     -6.51179667	    -28.78436077	      8.80925061	      4.27784555	    -22.05790741	     -0.38498311	      9.04374304	      7.14365297	     -6.53375596	    -18.16149185	      9.76258040	     -5.36932511	     -8.25059367	    -10.70994852	     -4.59897327	     15.14271960	     89.95437384	      0.00000000	      0.00000000	     14.59648175	      7.70669064	     12.97506472	     43.93638152	     89.95437384	      0.00000000	      0.00000000
      0.61000000	     11.36017025	     -7.67800422	      4.23541172	     -0.69264968	      0.92407933	      1.41224944	     11.24692984	      7.13083001	    -17.80140385	    -22.29711834	     -0.38915813	     -0.77035657	     -5.40914497	     -5.41187451	    -28.75521762	      9.02599708	      3.21238914	    -23.25238516	     -0.40583068	      7.55885574	      9.68032199	     -5.82784559	    -18.20897719	     10.26174898	     -5.14467396	     -7.89101608	    -10.85822712	     -3.92327429	     14.95730054	     89.95437384	      0.00000000	      0.00000000	     14.15689240	      7.40779575	     13.34777416	     43.39152453	     89.95437384	      0.00000000	      0.00000000
      0.62000000	     11.44039232	     -7.80874774	      4.10415558	     -0.68123328	      0.92613996	      1.41394287	     10.60792932	      7.55545244	    -17.06094861	    -22.66252207	     -0.39553563	     -0.31067025	     -5.42577183	     -5.26588541	    -28.48077417	      9.14596285	      3.03410306	    -24.95721720	     -0.43558561	      5.50942729	     10.34778960	     -5.47846475	    -18.26507891	     10.33578995	     -4.93240998	     -7.59248381	    -10.83596182	     -3.74301123	     14.79057436	     89.95437384	      0.00000000	      0.00000000	     13.72880880	      7.28066370	     13.29510545	     42.70929584	     89.95437384	      0.00000000	      0.00000000
      0.63000000	     11.59522827	     -7.87625641	      4.09590156	     -0.66989375	      0.92857161	      1.41555096	      9.53487436	      8.04716328	    -16.28656843	    -22.34676797	     -0.39002468	      0.07509448	     -5.75962611	     -5.03835253	    -28.08038018	      9.22453687	      2.73494018	    -26.79340245	     -0.46763309	      2.95296823	     11.75727627	     -4.99268092	    -18.37662506	     10.36340276	     -4.93012139	     -7.20611472	    -10.80549314	     -3.59926401	     14.61385254	     89.95437384	      0.00000000	      0.00000000	     13.33941196	      7.22392805	     13.22644877	     41.76325085	     89.95437384	      0.00000000	      0.00000000
      0.64000000	     11.88743592	     -7.94352043	      4.22288615	     -0.65861079	      0.93132316	      1.41707557	      8.03622906	      8.70758080	    -15.19035365	    -21.42341272	     -0.37390909	     -0.18046847	     -7.35554472	     -4.32705213	    -27.73849184	      9.19256091	      1.71831061	    -28.65637731	     -0.50014814	      0.78555589	     14.10494426	     -4.03022001	    -18.67425922	     10.42619922	     -4.93635251	     -6.90239006	    -10.73667672	     -3.67652159	     14.70524996	     89.95437384	      0.00000000	      0.00000000	     12.83538506	      7.16568167	     13.10885392	     41.08439227	     89.95437384	      0.00000000	      0.00000000
      0.65000000	     12.02338313	     -7.63135943	      4.14379890	     -0.64772168	      0.93365278	      1.41868172	      6.97322040	      8.69971043	    -14.71342408	    -21.20021173	     -0.37001350	      0.37714342	     -7.26967991	     -4.18960402	    -26.91453575	      8.89805948	      1.52627671	    -30.93882195	     -0.53998431	     -1.33893495	     14.56558571	     -3.63474435	    -18.86425113	     10.01137292	     -4.87641772	     -6.61095537	    -10.65807182	     -3.59981611	     14.89009185	     89.95437384	      0.00000000	      0.00000000	     12.46538472	      7.16782372	     12.96987667	     40.14559237	     89.95437384	      0.00000000	      0.00000000
      0.66000000	     12.22974315	     -7.53101544	      4.48289653	     -0.63676567	      0.93601720	      1.41993885	      5.60693736	      8.96034355	    -14.57042830	    -20.40214326	     -0.35608457	      0.53646713	     -7.60325134	     -3.73225211	    -25.98836275	      8.87946184	      0.59604350	    -33.35897724	     -0.58222399	     -3.26833993	     15.85222849	     -2.68583741	    -19.03541308	      9.92215359	     -5.07675379	     -6.36628027	    -10.54482972	     -3.76493578	     15.16525169	     89.95437384	      0.00000000	      0.00000000	     12.04923476	      7.16296240	     12.77273194	     39.24144065	     89.95437384	      0.00000000	      0.00000000
